<svg
  xmlns="http://www.w3.org/2000/svg"
  width="60"
  height="60"
  viewBox="0 -3 60 60"
>
  <g transform="matrix(0.8150280460809785,0,0,0.8150280460809785,-5.225420691214676,-12.905866647566816)" fill="#989be0">
    <path d="M33.149,31.394h11.459h11.458c2.278,0,2.207-2.086,2.207-2.086c0-0.233,0.024-4.1,0-4.29c-0.362-2.843-4.396-2.607-4.396-2.607l-2.366-0.007c-2.207,0-2.349-2.35-2.349-2.35v-4.482c0-2.207-1.736-3.375-4.555-3.417c-2.818-0.041-4.556,1.21-4.556,3.417v4.482c0,0-0.142,2.35-2.349,2.35l-2.367,0.007c0,0-4.031-0.236-4.395,2.607c-0.024,0.19,0,4.057,0,4.29C30.943,29.308,30.872,31.394,33.149,31.394z M44.638,13.914c1.362,0,2.468,1.106,2.468,2.468c0,1.361-1.106,2.467-2.468,2.467s-2.468-1.106-2.468-2.467C42.17,15.02,43.276,13.914,44.638,13.914z"/>
    <polygon points="69.161,63.605 68.333,63.082 63.599,60.093 62.945,59.682 62.841,60.05 62.832,60.093 62.211,63.082 62.222,63.082 61.803,65.054 65.498,66.878"/>
    <path d="M62.618,72.639l-2.813,0.274l-0.033-0.062l-0.06,0.04l-38.324-0.028v-2.988l37.196-0.037l0.99-6.756H21.388v-2.989h38.624l0.305-2.072l3.163-4.743H21.388v-2.988h44.087l8.742-13.107V26.729c0-2.515-2.041-4.555-4.556-4.555H59.05c0,0,1.501,0.57,1.501,2.466v4.556c0,4.936-3.985,4.367-3.985,4.367H44.608H32.651c0,0-3.985,0.568-3.985-4.367v-4.556c0-1.896,1.5-2.466,1.5-2.466H19.555c-2.515,0-4.555,2.04-4.555,4.555v52.383c0,2.516,2.04,4.556,4.555,4.556h50.106c2.515,0,4.556-2.04,4.556-4.556V61.48l-2.531,3.458L62.618,72.639z M21.388,40.533h47.26v2.989h-47.26V40.533z"/>
    <polygon points="60.861,69.58 61.055,69.836 61.463,70.373 62.322,70.205 62.623,69.833 63.968,68.169 61.463,67.118"/>
    <path d="M91.448,29.417l-3.579-2.558c0,0-1.729-1.668-3.086,0.255l-3.08,4.566l6.875,4.983l3.405-4.482C91.983,32.181,93.304,30.729,91.448,29.417z"/>
    <polygon points="74.217,41.888 70.548,47.076 63.651,56.824 70.999,61.379 87.697,38.374 80.322,33.255"/>
  </g>
</svg>
