<svg
  xmlns="http://www.w3.org/2000/svg"
  width="352.3928741455078"
  height="58.38760432264094"
  viewBox="0 -3 369.88524590163934 61.285896983178176"
>
  <g transform="matrix(0.8150280460809785,0,0,0.8150280460809785,-5.225420691214676,-12.905866647566816)" fill="#989be0">
    <path d="M33.149,31.394h11.459h11.458c2.278,0,2.207-2.086,2.207-2.086c0-0.233,0.024-4.1,0-4.29c-0.362-2.843-4.396-2.607-4.396-2.607l-2.366-0.007c-2.207,0-2.349-2.35-2.349-2.35v-4.482c0-2.207-1.736-3.375-4.555-3.417c-2.818-0.041-4.556,1.21-4.556,3.417v4.482c0,0-0.142,2.35-2.349,2.35l-2.367,0.007c0,0-4.031-0.236-4.395,2.607c-0.024,0.19,0,4.057,0,4.29C30.943,29.308,30.872,31.394,33.149,31.394z M44.638,13.914c1.362,0,2.468,1.106,2.468,2.468c0,1.361-1.106,2.467-2.468,2.467s-2.468-1.106-2.468-2.467C42.17,15.02,43.276,13.914,44.638,13.914z"/>
    <polygon points="69.161,63.605 68.333,63.082 63.599,60.093 62.945,59.682 62.841,60.05 62.832,60.093 62.211,63.082 62.222,63.082 61.803,65.054 65.498,66.878"/>
    <path d="M62.618,72.639l-2.813,0.274l-0.033-0.062l-0.06,0.04l-38.324-0.028v-2.988l37.196-0.037l0.99-6.756H21.388v-2.989h38.624l0.305-2.072l3.163-4.743H21.388v-2.988h44.087l8.742-13.107V26.729c0-2.515-2.041-4.555-4.556-4.555H59.05c0,0,1.501,0.57,1.501,2.466v4.556c0,4.936-3.985,4.367-3.985,4.367H44.608H32.651c0,0-3.985,0.568-3.985-4.367v-4.556c0-1.896,1.5-2.466,1.5-2.466H19.555c-2.515,0-4.555,2.04-4.555,4.555v52.383c0,2.516,2.04,4.556,4.555,4.556h50.106c2.515,0,4.556-2.04,4.556-4.556V61.48l-2.531,3.458L62.618,72.639z M21.388,40.533h47.26v2.989h-47.26V40.533z"/>
    <polygon points="60.861,69.58 61.055,69.836 61.463,70.373 62.322,70.205 62.623,69.833 63.968,68.169 61.463,67.118"/>
    <path d="M91.448,29.417l-3.579-2.558c0,0-1.729-1.668-3.086,0.255l-3.08,4.566l6.875,4.983l3.405-4.482C91.983,32.181,93.304,30.729,91.448,29.417z"/>
    <polygon points="74.217,41.888 70.548,47.076 63.651,56.824 70.999,61.379 87.697,38.374 80.322,33.255"/>
  </g>

  <g transform="matrix(1.5548998900737512,0,0,1.5548998900737512,81.75608127423547,-17.5917392080765)" fill="#574c6e">
    <path d="M0.8 33.56 l5.64 0 c0 1.24 0.84 2.76 3.8 2.8 c2.08 0 3.04 -0.96 3.04 -1.92 c0 -3.6 -12.12 0.08 -12.12 -8.56 c0 -3.72 3.28 -6.64 8.48 -6.64 s8.48 2.68 8.8 6.8 l-5.56 0 c-0.08 -1.48 -0.68 -2.6 -3.16 -2.6 c-1.6 0 -2.92 0.52 -2.92 1.8 c0 3.68 12.4 0.44 12.4 8.24 c0 4.88 -4.08 6.92 -9.24 6.92 c-5.6 0 -9.04 -2.92 -9.16 -6.84 z
      M27.418 12.6 l0 8.96 c0.8 -1.04 3 -2.44 5.88 -2.44 c4.8 0 7.92 3.32 7.92 8.28 l0 12.6 l-5.52 0 l0 -11.64 c0 -2.44 -1.4 -4.12 -3.76 -4.12 c-2.72 0 -4.52 1.72 -4.52 4.56 l0 11.2 l-5.56 0 l0 -27.4 l5.56 0 z
      M54.956 19.08 c6.32 0 11.04 4.72 11.04 10.72 c0 5.96 -4.72 10.68 -11.04 10.68 s-11 -4.68 -11 -10.68 c0 -5.96 4.72 -10.72 11 -10.72 z
      M54.956 24.12 c-3.12 0 -5.52 2.4 -5.52 5.68 s2.28 5.72 5.4 5.72 s5.64 -2.44 5.64 -5.72 s-2.4 -5.68 -5.52 -5.68 z
      M79.734 24.32 c-3.2 0 -5.6 2.44 -5.6 5.52 c0 3.04 2.48 5.52 5.6 5.52 c3.04 0 5.4 -2.48 5.4 -5.52 c0 -3.08 -2.36 -5.52 -5.4 -5.52 z
      M80.214 40.28 c-2.32 0 -4.56 -0.72 -6 -1.84 l0 8.6 l-5.56 0 l0 -27.56 l5.56 0 l0 1.6 c1.44 -1.12 3.68 -1.8 6 -1.8 c5.6 0 10.36 4.52 10.36 10.44 s-4.76 10.56 -10.36 10.56 z
      M104.392 24.32 c-3.2 0 -5.6 2.44 -5.6 5.52 c0 3.04 2.48 5.52 5.6 5.52 c3.04 0 5.4 -2.48 5.4 -5.52 c0 -3.08 -2.36 -5.52 -5.4 -5.52 z
      M104.872 40.28 c-2.32 0 -4.56 -0.72 -6 -1.84 l0 8.6 l-5.56 0 l0 -27.56 l5.56 0 l0 1.6 c1.44 -1.12 3.68 -1.8 6 -1.8 c5.6 0 10.36 4.52 10.36 10.44 s-4.76 10.56 -10.36 10.56 z
      M123.57 40 l-5.6 0 l0 -27.4 l5.6 0 l0 27.4 z
      M137.148 24.32 c-3.04 0 -5.4 2.48 -5.4 5.52 c0 3.08 2.36 5.52 5.4 5.52 c3.2 0 5.6 -2.44 5.6 -5.52 c0 -3.04 -2.48 -5.52 -5.6 -5.52 z
      M142.668 40 l0 -1.52 c-1.44 1.12 -3.68 1.8 -6 1.8 c-5.6 0 -10.36 -4.52 -10.36 -10.44 s4.76 -10.56 10.36 -10.56 c2.32 0 4.56 0.72 6 1.84 l0 -1.64 l5.56 0 l0 20.52 l-5.56 0 z
      M156.806 19.48 l0 2.08 c1 -1.16 3.12 -2.44 5.96 -2.44 c4.8 0 7.92 3.32 7.92 8.28 l0 12.6 l-5.52 0 l0 -11.64 c0 -2.44 -1.4 -4.12 -3.76 -4.12 c-2.72 0 -4.52 1.72 -4.52 4.56 l0 11.2 l-5.56 0 l0 -20.52 l5.48 0 z
      M179.384 40 l-5.6 0 l0 -20.52 l5.56 0 l0 2.8 c1.36 -1.88 3.4 -3.08 5.96 -3.08 l0 5.6 c-4.08 0 -5.92 2.28 -5.92 5.84 l0 9.36 z"/>
  </g>
</svg>
